<svg width="18" height="18" viewBox="0 0 18 18" fill="none" xmlns="http://www.w3.org/2000/svg">
<path d="M17.4371 8.71857C17.4371 13.5349 13.5349 17.4371 8.71857 17.4371C3.90226 17.4371 0 13.5349 0 8.71857C0 3.90226 3.90226 0 8.71857 0C13.5349 0 17.4371 3.90226 17.4371 8.71857ZM12.3888 7.70257L9.84354 10.3568V3.93742C9.84354 3.46985 9.46738 3.09369 8.99981 3.09369H8.43732C7.96975 3.09369 7.59359 3.46985 7.59359 3.93742V10.3568L5.04833 7.70257C4.72139 7.36156 4.17648 7.35453 3.8425 7.68851L3.4593 8.07522C3.12884 8.40568 3.12884 8.94005 3.4593 9.26699L8.12092 13.9321C8.45139 14.2626 8.98575 14.2626 9.31269 13.9321L13.9778 9.26699C14.3083 8.93653 14.3083 8.40217 13.9778 8.07522L13.5946 7.68851C13.2607 7.35453 12.7157 7.36156 12.3888 7.70257Z" fill="white"/>
</svg>
