<svg width="17" height="13" viewBox="0 0 17 13" fill="none" xmlns="http://www.w3.org/2000/svg">
<path d="M16.2069 6.81609L10.7285 12.2945C10.2394 12.7836 9.39155 12.4412 9.39155 11.7401V8.60961H4.95665C4.52294 8.60961 4.17402 8.26069 4.17402 7.82698V4.69647C4.17402 4.26276 4.52294 3.91384 4.95665 3.91384H9.39155V0.783322C9.39155 0.0854784 10.2361 -0.260183 10.7285 0.22896L16.2069 5.70736C16.5102 6.01389 16.5102 6.50956 16.2069 6.81609ZM6.26103 12.1314V10.8271C6.26103 10.6118 6.08494 10.4357 5.86972 10.4357H3.13052C2.55333 10.4357 2.08701 9.96943 2.08701 9.39224V3.13121C2.08701 2.55402 2.55333 2.0877 3.13052 2.0877H5.86972C6.08494 2.0877 6.26103 1.91161 6.26103 1.69639V0.392008C6.26103 0.176785 6.08494 0.000693558 5.86972 0.000693558H3.13052C1.40221 0.000693558 0 1.4029 0 3.13121V9.39224C0 11.1205 1.40221 12.5228 3.13052 12.5228H5.86972C6.08494 12.5228 6.26103 12.3467 6.26103 12.1314Z" fill="#E74747"/>
</svg>
