<svg width="59" height="78" viewBox="0 0 59 78" fill="none" xmlns="http://www.w3.org/2000/svg">
<path d="M57.4336 15.9961L42.5191 1.06641C41.8336 0.380859 40.9043 0 39.9293 0H39V19.5H58.5V18.5707C58.5 17.6109 58.1191 16.6816 57.4336 15.9961ZM19.5609 51.1875C16.834 51.1875 14.625 53.0309 14.625 55.3008C14.625 57.5859 16.8492 59.4141 19.5762 59.4141C22.3031 59.4141 24.5121 57.5707 24.5121 55.3008C24.5121 53.0309 22.2879 51.1875 19.5609 51.1875ZM34.125 20.7188V0H24.4359V4.875H19.5609V0H3.65625C1.63008 0 0 1.63008 0 3.65625V74.3438C0 76.3699 1.63008 78 3.65625 78H54.8437C56.8699 78 58.5 76.3699 58.5 74.3438V24.375H37.7812C35.7703 24.375 34.125 22.7297 34.125 20.7188ZM14.6098 4.875H19.4848V9.75H14.6098V4.875ZM19.5305 63.375C14.4727 63.375 10.6945 58.7438 11.7 53.7926L14.6859 39V34.125H19.5609V29.25H14.6859V24.375H19.5609V19.5H14.6859V14.625H19.5609V9.75H24.4359V14.625H19.5609V19.5H24.4359V24.375H19.5609V29.25H24.4359V34.125H19.5609V39H22.9277C23.7961 39 24.5578 39.6246 24.7254 40.4777L27.3609 53.8383C28.3359 58.7742 24.5578 63.375 19.5305 63.375Z" fill="#FF4242"/>
</svg>
