<?xml version="1.0" standalone="no"?>
<!DOCTYPE svg PUBLIC "-//W3C//DTD SVG 20010904//EN"
 "http://www.w3.org/TR/2001/REC-SVG-20010904/DTD/svg10.dtd">
<svg version="1.0" xmlns="http://www.w3.org/2000/svg"
 width="203.000000pt" height="203.000000pt" viewBox="0 0 203.000000 203.000000"
 preserveAspectRatio="xMidYMid meet">
<metadata>
Created by potrace 1.14, written by Peter Selinger 2001-2017
</metadata>
<g transform="translate(0.000000,203.000000) scale(0.100000,-0.100000)"
fill="#000000" stroke="none">
<path d="M303 2020 c-56 -23 -54 27 -51 -1012 3 -877 4 -956 20 -971 9 -9 27
-21 40 -25 29 -11 1387 -8 1411 2 47 21 47 23 47 724 l0 658 -280 0 c-210 0
-285 3 -303 13 -48 26 -51 43 -51 339 l-1 277 -125 0 -125 0 0 -60 0 -60 -56
-1 c-31 0 -60 -3 -65 -7 -6 -3 -9 -31 -8 -61 1 -31 -1 -56 -5 -57 -9 -1 -94
-1 -108 0 -9 1 -13 20 -13 61 0 66 -5 63 83 62 l47 -1 0 65 0 64 -217 -1
c-120 0 -228 -4 -240 -9z m577 -249 c3 0 5 -28 5 -61 l0 -60 -62 0 c-34 0 -63
-4 -65 -10 -1 -5 -1 -34 0 -64 l4 -55 41 1 c87 2 84 4 81 -59 -1 -32 -2 -60
-3 -63 -1 -4 -84 -5 -113 -1 -4 1 -8 29 -10 64 l-3 62 -62 -2 -63 -2 0 64 0
65 65 0 65 0 0 58 c0 32 3 62 6 65 6 5 88 4 114 -2z m-120 -420 c-3 -84 -6
-80 63 -83 l62 -3 1 -50 c0 -27 -1 -55 -3 -61 -3 -7 -27 -11 -61 -11 l-57 1
-3 -64 -3 -65 49 1 c27 1 56 -4 65 -11 13 -9 32 -78 51 -190 3 -16 14 -71 24
-120 22 -108 21 -140 -9 -199 -67 -136 -259 -149 -349 -25 -41 57 -46 97 -26
203 9 50 19 105 22 121 3 17 14 70 25 120 10 49 19 120 19 157 0 58 3 68 18
69 9 1 37 2 62 3 l45 1 3 63 3 62 -66 0 -65 0 0 64 0 63 66 0 65 0 -1 -46z"/>
<path d="M695 684 c-108 -55 -76 -177 51 -197 48 -7 107 24 127 66 22 46 21
59 -4 91 -43 54 -115 71 -174 40z"/>
<path d="M1263 1777 l0 -253 254 0 253 0 0 30 c0 26 -30 61 -223 253 -193 193
-227 223 -253 223 l-31 0 0 -253z"/>
</g>
</svg>
